<?xml version="1.0" encoding="UTF-8"?>
<!DOCTYPE svg PUBLIC "-//W3C//DTD SVG 1.1//EN" "http://www.w3.org/Graphics/SVG/1.1/DTD/svg11.dtd">
<!-- Creator: CorelDRAW 2020 (64-Bit) -->
<svg xmlns="http://www.w3.org/2000/svg" xml:space="preserve" width="210mm" height="100mm" version="1.1" style="shape-rendering:geometricPrecision; text-rendering:geometricPrecision; image-rendering:optimizeQuality; fill-rule:evenodd; clip-rule:evenodd"
viewBox="0 0 21000 10000"
 xmlns:xlink="http://www.w3.org/1999/xlink"
 xmlns:xodm="http://www.corel.com/coreldraw/odm/2003">
 <defs>
  <style type="text/css">
   <![CDATA[
    .fil1 {fill:#201E1E;fill-rule:nonzero}
    .fil0 {fill:#FF131B;fill-rule:nonzero}
   ]]>
  </style>
 </defs>
 <g id="Capa_x0020_1">
  <metadata id="CorelCorpID_0Corel-Layer"/>
  <g id="_2527952720944">
   <path class="fil0" d="M2040.07 2204.08l-34.08 1534.16c0,37.61 0,65.79 0,87.3 0,52.46 11.71,77.97 34.08,77.97 12.57,0 47.51,-34.93 104.92,-106.15 205.25,-251.23 431.16,-377.47 677.73,-377.47 245.52,0 461.63,133 648.99,397.66 233.9,333.11 351.38,767.03 351.38,1303.01 0,763.04 -190.11,1372.99 -569.3,1829.77 -273.42,330.44 -593.39,495.71 -961.81,495.71 -182.03,0 -346.06,-34.94 -492.1,-104.82 -146.13,-68.54 -305.69,-188.02 -479.62,-355.96 -25.99,-22.84 -46.65,-34.93 -62.83,-34.93 -18.76,0 -73.5,24.18 -163.08,75.2 -44.84,25.52 -98.63,38.94 -159.56,38.94 -108.43,0 -163.17,-52.36 -163.17,-157.18 0,-34.93 4.47,-73.87 13.42,-118.24 35.03,-170.6 58.26,-381.47 70.93,-634.03 12.47,-251.24 17.89,-650.23 17.89,-1195.63l0 -1086.82c0,-269.99 -6.28,-439.25 -20.66,-507.8 -14.28,-68.54 -53.78,-122.24 -118.33,-161.17 -91.49,-57.79 -154.13,-115.58 -189.16,-172.03 -34.94,-56.36 -52.84,-127.57 -52.84,-213.54 0,-176.02 125.47,-347.96 375.57,-515.89 137.18,-88.63 307.5,-167.94 511.04,-233.72 204.3,-67.21 379.18,-100.82 524.36,-100.82 92.35,0 138.04,79.3 136.23,236.48zm225.92 2400.68c-94.16,0 -163.18,48.37 -204.4,145.09 -34.08,73.88 -50.17,222.96 -50.17,448.68 0,616.62 14.37,1033.03 42.08,1247.99 24.18,198.88 98.63,299.6 223.24,299.6 127.29,0 224.96,-81.97 291.32,-244.48 66.35,-162.6 99.48,-398.98 99.48,-708.01 0,-456.77 -55.59,-789.88 -167.55,-1000.84 -64.55,-119.58 -142.61,-182.69 -234,-188.03z"/>
   <path class="fil0" d="M6438.74 5576l-1234.38 0c-53.69,0 -80.63,36.28 -80.63,107.49 0,170.6 60.93,330.44 184.59,480.95 123.76,151.75 256.47,227.06 398.04,227.06 84.25,0 177.45,-24.19 279.7,-72.55 102.24,-48.36 187.35,-108.81 253.71,-180.02 59.12,-61.79 106.62,-94.06 141.56,-94.06 45.79,0 90.54,41.6 133.66,126.24 43.89,83.3 66.26,170.6 66.26,259.32 0,189.36 -78.82,372.14 -236.57,546.74 -278.84,313.02 -599.77,468.87 -963.72,468.87 -367.47,0 -675.93,-159.85 -925.16,-479.63 -120.05,-158.51 -220.49,-347.96 -299.31,-570.92 -103.11,-296.93 -154.23,-608.62 -154.23,-936.39 0,-441.93 88.73,-836.91 267.13,-1188.87 154.14,-304.93 350.53,-531.99 588.92,-681.07 178.4,-112.91 372.04,-169.27 580.06,-169.27 332.53,0 615.85,141 847.95,424.5 117.48,142.42 212.49,310.26 284.27,503.71 82.45,220.39 123.67,436.69 123.67,646.23 0,170.6 -24.18,310.35 -71.78,419.17 -46.56,108.81 -108.44,162.5 -183.74,162.5zm-1165.36 -734.85l265.42 0c112.06,0 167.56,-77.88 167.56,-232.39 0,-142.42 -26.85,-257.9 -81.59,-346.62 -53.69,-88.64 -124.52,-134.33 -212.39,-134.33 -97.77,0 -174.89,57.78 -231.34,173.36 -52.84,107.38 -78.83,216.2 -78.83,326.44 0,79.21 12.57,134.33 38.46,165.18 25.14,32.27 69.12,48.36 132.71,48.36z"/>
   <path class="fil0" d="M8173.97 4219.2l0 1262.75c0,558.92 6.28,883.94 17.04,976.66 11.61,91.4 54.64,162.61 129.95,212.3 65.49,41.6 108.43,80.54 130.04,118.14 22.37,36.28 33.13,88.73 33.13,157.18 0,86.06 -20.66,165.27 -61.88,236.48 -41.22,71.21 -95.96,120.91 -164.03,149.09 -126.43,57.78 -338.82,87.39 -638.23,87.39 -337.96,0 -575.58,-39.03 -711.82,-114.24 -62.73,-34.94 -114.71,-87.3 -155.08,-159.84 -40.27,-72.55 -59.97,-147.76 -59.97,-227.06 0,-61.78 10.66,-111.48 32.27,-145.08 22.37,-33.61 69.88,-75.21 143.37,-122.24 68.16,-44.37 110.24,-166.6 126.43,-365.38 27.8,-341.3 42.08,-826.25 42.08,-1456.29 0,-640.8 -12.47,-1051.88 -36.75,-1235.9 -25.04,-184.02 -86.06,-319.78 -183.74,-409.75 -73.49,-63.11 -124.62,-122.23 -151.56,-178.69 -26.85,-56.36 -40.27,-124.9 -40.27,-206.87 0,-129 41.22,-240.48 122.81,-335.87 82.44,-96.72 214.2,-185.36 394.42,-265.99 121,-55.03 277.03,-107.48 469.72,-157.18 192.78,-49.69 332.54,-75.21 420.41,-75.21 138.04,0 207.06,129 207.06,385.57 0,84.63 -8.09,276.75 -25.99,579.01 -22.37,468.86 -35.8,900.03 -39.41,1291.02z"/>
   <path class="fil0" d="M10103.78 4451.59l0 1329.95c0,157.18 25.14,286.18 77.12,385.57 51.98,99.39 117.38,149.08 198.11,149.08 68.07,0 158.7,-47.03 270.75,-140.99 25.99,-24.18 52.84,-36.27 78.83,-36.27 42.17,0 80.63,38.93 115.67,114.14 34.94,76.55 51.98,159.85 51.98,248.57 0,162.51 -59.12,318.36 -178.41,468.77 -248.28,317.12 -549.5,475.63 -903.55,475.63 -279.7,0 -504.76,-118.24 -675.07,-356.05 -169.36,-237.72 -254.57,-550.74 -254.57,-938.97l0 -1817.67c0,-60.46 -4.47,-98.06 -14.28,-112.82 -9.9,-14.75 -34.08,-21.51 -74.45,-21.51l-270.75 0c-51.03,0 -83.3,-12.09 -97.67,-37.61 -13.43,-24.18 -20.66,-83.3 -20.66,-174.6l0 -173.36c1.9,-79.2 21.51,-136.99 60.07,-173.26l1203.05 -1133.85c29.61,-22.84 66.26,-34.93 110.25,-34.93l213.34 0c43.03,0 72.64,14.75 87.87,45.69 14.38,29.51 22.37,89.97 22.37,178.69l0 530.65c0,79.21 8.1,130.24 24.28,154.42 16.95,22.85 52.84,34.94 106.63,34.94l485.81 0c64.54,0 106.72,17.52 126.42,53.79 18.85,34.94 28.75,110.15 28.75,225.62l0 232.48c0,126.24 -12.56,213.54 -36.84,261.9 -24.18,48.36 -69.02,72.55 -134.42,72.55l-475.15 0c-48.36,0 -82.45,13.42 -99.49,39.03 -17.89,26.84 -25.99,76.54 -25.99,150.42z"/>
   <path class="fil0" d="M12354.05 3444.07c93.2,0 149.65,18.76 169.36,59.12 20.66,38.94 38.56,165.18 54.74,377.48 8.09,115.47 35.89,173.26 80.64,173.26 35.03,0 69.11,-38.94 100.43,-114.14 139.85,-327.78 322.73,-491.72 548.65,-491.72 159.46,0 289.5,76.54 390.8,231.06 49.31,76.54 89.68,174.69 121,294.17 31.41,118.24 47.5,233.81 47.5,343.96 0,123.57 -19.61,249.9 -57.31,380.13 -38.56,129 -88.73,236.48 -149.75,319.78 -112.05,161.18 -250.09,240.48 -412.32,240.48 -89.67,0 -164.03,-22.85 -225.05,-71.21 -59.98,-47.03 -139.85,-142.42 -237.53,-286.17 -36.74,-55.03 -70.83,-83.3 -102.15,-83.3 -49.31,0 -81.58,41.7 -95.96,123.57 -15.23,83.3 -22.37,256.66 -22.37,522.65 0,394.89 9.9,666.31 28.65,810.07 12.57,79.2 29.61,132.99 51.13,163.84 22.37,29.6 69.02,60.45 140.7,91.39 157.75,71.21 236.67,194.78 236.67,370.81 0,107.38 -25.99,201.44 -76.16,280.75 -51.12,80.54 -118.33,132.99 -202.59,159.84 -167.64,52.36 -415.07,79.3 -740.47,79.3 -310.16,0 -545.02,-41.7 -706.39,-122.33 -143.47,-73.88 -215.15,-201.45 -215.15,-381.47 0,-137 51.98,-259.33 156.89,-366.72 51.03,-49.79 86.06,-95.39 105.77,-135.75 18.75,-40.27 32.27,-96.73 39.41,-167.94 27.8,-237.72 41.22,-679.73 41.22,-1325.86 0,-118.24 -8,-202.88 -25.99,-253.9 -16.94,-51.13 -51.98,-92.73 -104.81,-123.67 -124.62,-73.88 -186.5,-179.93 -186.5,-318.35 0,-126.24 43.03,-235.05 128.23,-325.11 85.97,-89.97 229.44,-180.03 431.17,-269.99 269.8,-120.91 499.33,-181.36 687.54,-184.03z"/>
   <path class="fil0" d="M15355.07 3415.8c304.74,0 562.92,115.57 774.46,346.63 112.05,123.57 190.97,264.65 235.81,423.16 43.89,158.51 66.35,377.48 66.35,655.56l-5.42 585.77c0,406.98 19.8,670.31 58.26,791.21 18.85,57.79 37.7,94.06 55.6,110.15 17.04,16.19 53.79,29.61 110.24,43.03 55.6,13.43 83.4,68.55 83.4,165.27 0,126.24 -33.23,257.9 -101.3,393.56 -67.3,137 -154.13,251.24 -260.85,342.54 -131.76,115.57 -268.94,173.36 -412.41,173.36 -183.74,0 -329.01,-94.06 -435.64,-283.51 -36.74,-68.45 -70.83,-102.06 -103.1,-102.06 -34.94,0 -80.64,32.28 -138.9,98.06 -174.79,192.12 -373.85,287.51 -596.15,287.51 -229.43,0 -414.98,-73.88 -556.73,-220.3 -92.25,-96.72 -166.6,-224.39 -220.49,-380.23 -54.64,-155.84 -81.49,-318.35 -81.49,-488.95 0,-274.09 73.5,-514.56 220.49,-725.43 229.53,-330.54 572.82,-497.14 1029.98,-499.81 101.29,0 164.88,-14.76 191.83,-44.27 25.99,-30.94 38.55,-100.82 38.55,-210.96 0,-278.09 -18.85,-479.63 -57.4,-604.53 -38.47,-123.57 -101.3,-186.69 -189.07,-186.69 -52.94,0 -99.49,24.18 -140.81,71.21 -41.22,46.94 -92.34,133 -153.27,259.23 -156.03,333.21 -319.11,499.71 -488.57,499.71 -86.06,0 -156.03,-37.6 -209.73,-114.14 -54.74,-75.21 -81.59,-176.03 -81.59,-298.27 0,-126.23 33.13,-252.56 101.3,-378.8 67.21,-124.9 158.7,-235.15 274.27,-330.44 316.45,-251.24 647.27,-377.57 992.38,-377.57zm-175.65 2278.44c-77.11,0 -144.32,47.03 -200.87,142.42 -57.31,93.97 -85.11,206.88 -85.11,338.54 0,126.24 19.7,226.96 60.07,304.93 40.36,76.54 93.2,115.48 160.41,115.48 139.85,0 209.73,-177.27 209.73,-530.56 0,-145.18 -9.8,-241.9 -30.46,-291.6 -19.71,-49.69 -58.27,-76.54 -113.77,-79.21z"/>
   <path class="fil0" d="M20064.84 4821.73l36.85 1384.98c0.07,2.73 0,5.5 0.04,8.24 7.05,78.54 14.2,155.43 21.66,226.96l135.58 1297.67c11.7,112.23 14.84,197.21 33.12,250.95 18.19,53.33 71.69,158.05 161.37,310.23 25.99,45.03 39.41,108.84 39.41,191.46 0,187.02 -69.02,317.53 -207.92,390.08 -138.04,74 -384.52,111.7 -740.47,111.7 -241.15,0 -412.41,-34.84 -511.89,-102.97 -103.11,-71.11 -155,-185.68 -155,-343.73 0,-56.52 5.33,-98.56 16.09,-124.65 9.91,-27.54 44.08,-93.42 104.92,-198.64 69.01,-119.51 32.46,-341.49 32.46,-1015.81 0,-369.94 -57.88,-734.24 -79.68,-1231.61 -3.36,-77.61 -3.83,-183.25 -4.35,-296.21 -0.55,-41.23 -0.81,-83.39 -0.8,-126.56l0 -8.03c-1.64,-188.5 -6.48,-374.89 -27.41,-468.99 -7.16,-32.32 -8.89,-67.48 -7.16,-103.59 -12.96,-86.36 -29.54,-160.56 -49.78,-222.69 -45.68,-138.43 -129.09,-208.2 -251.89,-208.2 -117.49,0 -198.12,56.35 -242,169.26 -43.03,112.81 -65.41,317.02 -65.41,613.85l0 779.22c0,154.52 7.15,260.67 19.61,318.35 13.52,57.8 56.56,169.28 130.05,334.54 19.7,48.37 28.66,102.06 28.66,162.51 0,154.52 -71.69,268.75 -215.17,341.3 -143.36,73.87 -367.46,110.15 -672.29,111.48 -486.67,-1.33 -729.73,-151.84 -729.73,-452.78 0,-63.11 7.24,-111.48 22.48,-143.66 14.37,-33.6 50.17,-79.3 105.77,-139.75 45.69,-49.69 74.44,-107.49 86.9,-171.93 12.68,-64.55 23.34,-221.73 34.1,-474.2 12.56,-298.26 18.85,-612.61 18.85,-940.4 0,-181.36 -9.91,-299.59 -27.81,-356.05 -18.85,-56.35 -71.68,-124.91 -158.6,-206.87 -75.4,-71.21 -113,-157.17 -113,-259.23 0,-104.81 30.45,-190.78 91.48,-258 61.89,-67.11 187.26,-151.74 378.24,-253.9 168.6,-89.96 329.87,-165.16 485.91,-226.95 155.94,-61.89 262.65,-91.4 319.96,-91.4 52.93,0 96.83,28.17 132.71,85.97 35.89,57.79 53.8,126.33 53.8,204.21 0,8.09 -0.86,41.59 -1.82,99.38 -1.81,20.19 -2.75,38.94 -2.75,55.12 0,124.9 35.03,188.03 104.91,188.03 42.16,0 86.06,-49.7 133.56,-149.09 150.71,-325.1 369.38,-487.61 657.08,-487.61 220.58,0 409.64,85.96 566.64,259.23 110.14,123.56 187.25,268.66 231.23,435.26 43.9,166.6 70.83,411.07 81.49,733.52z"/>
   <path class="fil1" d="M11997.43 1065.57l-8.74 379.47c0,9.33 0,16.28 0,21.61 0,12.95 2.99,19.24 8.74,19.24 3.3,0 12.24,-8.67 27.05,-26.28 52.96,-62.07 111.26,-93.3 174.91,-93.3 63.35,0 119.08,32.85 167.41,98.35 60.36,82.34 90.7,189.73 90.7,322.25 0,188.78 -49.05,339.58 -146.95,452.59 -70.44,81.68 -153.01,122.61 -248.13,122.61 -46.89,0 -89.25,-8.66 -126.99,-25.98 -37.74,-16.95 -78.87,-46.46 -123.71,-87.97 -6.68,-5.71 -12.03,-8.66 -16.14,-8.66 -4.83,0 -19.02,5.99 -42.16,18.56 -11.52,6.38 -25.4,9.71 -41.13,9.71 -27.97,0 -42.16,-13.04 -42.16,-38.94 0,-8.66 1.23,-18.27 3.6,-29.22 8.94,-42.18 14.91,-94.35 18.2,-156.8 3.18,-62.17 4.62,-160.89 4.62,-295.79l0 -268.75c0,-66.83 -1.64,-108.63 -5.34,-125.57 -3.71,-16.95 -13.89,-30.27 -30.54,-39.89 -23.55,-14.28 -39.7,-28.56 -48.75,-42.55 -9.04,-14 -13.67,-31.61 -13.67,-52.84 0,-43.51 32.39,-86.06 96.86,-127.57 35.38,-21.9 79.39,-41.51 131.83,-57.79 52.75,-16.66 97.9,-24.94 135.33,-24.94 23.85,0 35.68,19.61 35.16,58.45zm58.31 593.77c-24.27,0 -42.16,12 -52.75,35.89 -8.74,18.28 -12.96,55.12 -12.96,111.01 0,152.51 3.7,255.52 10.9,308.64 6.17,49.22 25.4,74.06 57.59,74.06 32.8,0 57.99,-20.27 75.16,-60.45 17.07,-40.17 25.71,-98.63 25.71,-175.07 0,-113.01 -14.39,-195.36 -43.29,-247.53 -16.66,-29.6 -36.81,-45.22 -60.36,-46.55zm822.02 -237.52l0 527.6c0,113 25.92,169.46 77.95,169.46 12.85,0 25.91,-5.33 38.56,-16.28 12.55,-10.67 21.49,-23.61 26.43,-39.23 9.97,-31.22 14.8,-100.62 14.8,-208.3 0,-106.72 -2.36,-179.07 -7.4,-218.29 -1.95,-15.99 -4.93,-27.9 -9.56,-35.23 -4.32,-7.71 -12.86,-16.27 -25.61,-25.99 -25.7,-19.51 -38.66,-44.17 -38.66,-74.06 0,-40.18 22.21,-68.07 66.43,-83.68 83.91,-29.9 166.89,-44.56 248.54,-44.56 45.65,0 68.59,34.56 68.59,103.96 0,7.05 -0.31,21.61 -0.72,43.89 -1.03,31.23 -1.65,69.12 -2.06,113.96l0 429.35c0,21.9 13.16,42.18 39.28,60.07 22.21,15.62 33.32,38.27 33.32,68.17 0,58.45 -48.13,103.67 -144.38,135.56 -56.45,18.57 -111.26,27.9 -164.01,28.18 -21.7,-0.28 -36.51,-3.61 -44.32,-10.95 -7.92,-6.94 -12.55,-20.94 -13.88,-41.88 -2.37,-40.18 -10.9,-60.08 -25.71,-60.08 -5.55,0 -10.39,1.62 -15.12,5.34 -4.31,3.61 -18.2,16.56 -41.33,39.12 -45.56,44.94 -94.61,67.5 -146.85,67.5 -86.68,0 -147.97,-36.27 -183.65,-108.34 -30.33,-60.16 -45.55,-161.84 -45.55,-304.64 0,-53.22 0.2,-98.72 0.72,-136.23 0,-21.99 0,-36.94 0,-44.84 0,-55.89 -3.5,-96.73 -10.49,-123 -6.89,-26.28 -19.85,-46.84 -38.36,-61.79 -17.58,-12.95 -28.69,-23.23 -33.52,-31.22 -4.63,-7.62 -6.89,-18.66 -6.89,-32.28 0,-49.12 25.91,-82.06 77.84,-98.34 88.33,-27.51 176.97,-41.51 265.61,-41.51 26.53,0 40,16 40,48.56zm885.37 -49.51c24.06,0 38.56,4.57 43.7,14.57 5.25,9.61 9.98,40.84 14.09,93.39 2.06,28.56 9.26,42.84 20.88,42.84 8.94,0 17.68,-9.62 25.91,-28.28 35.99,-81.01 83.19,-121.57 141.39,-121.57 41.24,0 74.76,18.95 100.88,57.12 12.75,18.95 23.13,43.22 31.26,72.83 8.12,29.23 12.23,57.79 12.23,85.02 0,30.56 -5.03,61.78 -14.8,94.05 -9.88,31.9 -22.93,58.46 -38.57,79.12 -28.89,39.79 -64.57,59.4 -106.42,59.4 -23.14,0 -42.37,-5.61 -58,-17.61 -15.53,-11.61 -36.2,-35.22 -61.29,-70.73 -9.56,-13.62 -18.3,-20.66 -26.42,-20.66 -12.76,0 -21.08,10.37 -24.79,30.65 -3.9,20.57 -5.76,63.41 -5.76,129.19 0,97.68 2.58,164.79 7.41,200.4 3.29,19.61 7.61,32.84 13.16,40.55 5.86,7.24 17.89,14.95 36.4,22.57 40.62,17.61 60.98,48.17 60.98,91.67 0,26.57 -6.68,49.89 -19.64,69.5 -13.16,19.9 -30.54,32.85 -52.24,39.51 -43.29,12.95 -107.04,19.61 -191.06,19.61 -80,0 -140.56,-10.28 -182.21,-30.27 -37.02,-18.28 -55.53,-49.79 -55.53,-94.35 0,-33.89 13.37,-64.07 40.52,-90.72 13.16,-12.28 22.1,-23.61 27.25,-33.51 4.83,-10 8.33,-24 10.18,-41.51 7.09,-58.84 10.59,-168.22 10.59,-327.97 0,-29.23 -2.06,-50.17 -6.69,-62.83 -4.42,-12.66 -13.47,-22.95 -27.04,-30.56 -32.19,-18.28 -48.12,-44.56 -48.12,-78.73 0,-31.23 11.1,-58.17 33,-80.45 22.21,-22.27 59.34,-44.46 111.27,-66.73 69.71,-29.9 128.84,-44.94 177.48,-45.51zm1141.11 -58.55c11.1,0 21.08,9.33 29.82,27.61 8.63,18.56 12.75,40.18 12.75,64.83 0,26.56 -5.86,56.74 -17.38,90.63 -11.31,33.61 -25.19,60.55 -41.65,80.73 -10.38,13.05 -15.42,23.33 -15.42,30.94 0,2 0.41,10 1.34,23.61 1.44,13.62 2.05,25.9 2.05,36.85 0,77.4 -18.3,142.23 -54.29,194.68 -32.39,46.94 -74.45,83.11 -125.56,109.01 -51.41,25.89 -107.87,38.94 -169.15,38.94 -15.02,0 -29.52,-1.05 -44.12,-3.72 -11.62,-2 -20.77,-2.95 -27.14,-2.95 -23.76,0 -35.79,17.23 -35.79,51.5 0,22.28 7.82,39.51 23.34,52.17 15.53,12.57 36.82,18.95 63.35,18.95 18.09,0 44.73,-3.71 80.1,-10.66 74.04,-14.95 128.54,-22.57 163.91,-22.57 53.27,0 94.61,12.95 124.02,38.18 23.34,19.23 42.05,46.55 55.73,81.78 13.88,34.84 20.77,72.73 20.77,112.91 0,65.49 -16.66,128.9 -50.18,190.78 -39.69,72.73 -98.2,126.52 -175.53,161.46 -60.57,27.23 -130.49,40.84 -209.98,40.84 -100.36,0 -181.6,-21.9 -244.02,-66.07 -28.89,-20.66 -51.82,-48.17 -69.2,-81.78 -17.07,-33.89 -25.61,-68.73 -25.61,-105 0,-25.61 4.84,-48.84 14.61,-70.07 9.66,-21.61 21.9,-36.94 36.91,-45.89 13.37,-7.99 20.36,-16.28 20.36,-25.23 0,-7.33 -5.76,-17.61 -17.07,-31.22 -36.09,-43.6 -54.19,-88.73 -54.19,-135.28 0,-31.23 8.85,-63.41 26.22,-96.35 17.28,-33.22 38.87,-58.83 64.79,-77.11 10.79,-7.61 16.14,-15.61 16.14,-23.23 0,-8.95 -6.68,-22.56 -20.36,-40.84 -46.48,-61.78 -69.82,-133.57 -69.82,-216.3 0,-43.22 8.33,-84.72 24.68,-124.61 16.76,-39.51 39.59,-73.12 68.89,-101.01 72.71,-68.17 153.43,-102.34 241.76,-102.34 35.37,0 74.76,6.66 117.94,19.61 41.24,11.61 69.41,17.23 84.63,17.23 49.36,0 98.31,-27.89 147.15,-83.4 10.9,-11.9 19.23,-17.61 25.2,-17.61zm-368.03 201.35c-22.63,0 -40.62,12.28 -54.5,37.23 -13.88,24.56 -20.67,57.12 -20.67,98.05 0,70.07 7.51,126.24 22.21,168.41 15.12,42.27 34.76,63.5 59.02,63.5 24.07,0 42.99,-13.33 56.87,-39.51 14.19,-26.27 21.08,-61.5 21.08,-105.67 0,-69.5 -7.4,-123.28 -22.01,-162.13 -14.8,-38.55 -35.37,-58.55 -62,-59.88zm-147.77 885.85c-11.31,0 -16.86,9.61 -16.86,28.27 0,38.18 14.39,69.4 43.29,93.01 28.89,23.61 66.32,35.51 112.6,35.51 44.11,0 78.87,-8.28 103.86,-25.23 25.19,-16.94 37.73,-40.55 37.73,-71.11 0,-16.28 -4.62,-29.89 -14.39,-41.51 -9.46,-11.33 -20.98,-16.94 -35.17,-16.94 -7.1,0 -17.48,1.33 -31.16,3.99 -25.29,5.62 -53.47,8.67 -84.73,8.67 -22.83,0 -45.04,-1.72 -66.33,-4.67 -15.73,-2 -28.68,-4.66 -38.66,-7.99 -4.42,-1.34 -7.81,-2 -10.18,-2zm969.07 -979.14l0 527.6c0,113 25.91,169.46 77.95,169.46 12.95,0 25.91,-5.33 38.66,-16.28 12.44,-10.67 21.49,-23.61 26.33,-39.23 9.97,-31.22 14.8,-100.62 14.8,-208.3 0,-106.72 -2.26,-179.07 -7.4,-218.29 -1.85,-15.99 -4.83,-27.9 -9.46,-35.23 -4.42,-7.71 -12.96,-16.27 -25.71,-25.99 -25.71,-19.51 -38.56,-44.17 -38.56,-74.06 0,-40.18 22.21,-68.07 66.33,-83.68 83.9,-29.9 166.99,-44.56 248.64,-44.56 45.55,0 68.48,34.56 68.48,103.96 0,7.05 -0.3,21.61 -0.72,43.89 -0.92,31.23 -1.54,69.12 -2.05,113.96l0 429.35c0,21.9 13.16,42.18 39.28,60.07 22.21,15.62 33.32,38.27 33.32,68.17 0,58.45 -48.13,103.67 -144.28,135.56 -56.45,18.57 -111.26,27.9 -164.01,28.18 -21.8,-0.28 -36.5,-3.61 -44.42,-10.95 -7.92,-6.94 -12.44,-20.94 -13.88,-41.88 -2.27,-40.18 -10.8,-60.08 -25.71,-60.08 -5.45,0 -10.39,1.62 -15.01,5.34 -4.43,3.61 -18.21,16.56 -41.34,39.12 -45.66,44.94 -94.61,67.5 -146.95,67.5 -86.68,0 -147.97,-36.27 -183.65,-108.34 -30.23,-60.16 -45.45,-161.84 -45.45,-304.64 0,-53.22 0.2,-98.72 0.61,-136.23 0,-21.99 0,-36.94 0,-44.84 0,-55.89 -3.39,-96.73 -10.38,-123 -6.99,-26.28 -19.85,-46.84 -38.36,-61.79 -17.68,-12.95 -28.69,-23.23 -33.52,-31.22 -4.63,-7.62 -6.99,-18.66 -6.99,-32.28 0,-49.12 25.91,-82.06 77.94,-98.34 88.33,-27.51 176.97,-41.51 265.51,-41.51 26.63,0 40,16 40,48.56zm1195.09 477.71l-318.56 0c-13.78,0 -20.78,9.05 -20.78,26.66 0,42.17 15.74,81.68 47.61,118.91 31.98,37.5 66.23,56.16 102.73,56.16 21.8,0 45.86,-5.99 72.19,-17.99 26.43,-11.9 48.33,-26.85 65.4,-44.46 15.32,-15.32 27.56,-23.32 36.61,-23.32 11.82,0 23.34,10.38 34.44,31.32 11.32,20.56 17.07,42.17 17.07,64.07 0,46.84 -20.36,92.06 -60.97,135.28 -71.99,77.4 -154.76,115.95 -248.65,115.95 -94.81,0 -174.4,-39.6 -238.77,-118.62 -30.95,-39.22 -56.86,-86.06 -77.22,-141.27 -26.54,-73.4 -39.8,-150.52 -39.8,-231.53 0,-109.29 22.93,-207.06 69,-294.08 39.69,-75.4 90.39,-131.57 151.88,-168.5 46.07,-27.9 96.04,-41.8 149.62,-41.8 85.86,0 158.97,34.85 218.82,105.01 30.33,35.22 54.81,76.73 73.32,124.52 21.28,54.55 31.98,108.06 31.98,159.84 0,42.18 -6.28,76.74 -18.51,103.68 -12.03,26.94 -28.07,40.17 -47.41,40.17zm-300.67 -181.74l68.38 0c28.9,0 43.29,-19.23 43.29,-57.5 0,-35.13 -6.89,-63.78 -21.08,-85.68 -13.78,-21.89 -32.08,-33.22 -54.81,-33.22 -25.19,0 -45.14,14.28 -59.64,42.84 -13.57,26.56 -20.36,53.5 -20.36,80.73 0,19.61 3.19,33.22 9.98,40.93 6.47,7.91 17.79,11.9 34.24,11.9zm681.56 -351.48c22.72,0 59.43,6.95 110.54,21.23 10.38,2.67 19.02,4 25.71,4 7.61,0 22.72,-5.62 44.62,-17.61 10.39,-5.62 19.23,-8.66 26.64,-8.66 20.77,0 41.64,19.32 62.93,57.5 17.07,30.56 31.16,63.78 42.06,100.34 10.9,36.18 16.14,67.78 16.14,94.34 0,25.9 -6.17,47.51 -18.92,64.83 -12.75,16.95 -28.48,25.61 -47.4,25.61 -15.74,0 -29.83,-5.33 -42.37,-16.28 -12.44,-11.32 -32.39,-35.6 -59.85,-73.11 -28.89,-40.27 -52.96,-60.45 -71.98,-60.45 -12.65,0 -23.55,6.57 -32.8,19.89 -9.26,13.33 -13.88,29.23 -13.88,47.22 0,31.9 21.28,61.79 63.55,89.68 76.4,49.13 134.91,103.01 175.53,161.46 34.44,49.51 51.62,109.68 51.62,181.08 0,90.44 -27.56,165.46 -82.78,226 -47.41,52.46 -105.5,78.73 -174.2,78.73 -17.58,0 -49.46,-4.37 -96.24,-12.66 -43.6,-6.95 -68.18,-10.66 -73.73,-10.66 -5.76,0 -12.75,1.05 -20.36,3.05 -12.96,2.28 -22.42,3.61 -28.49,3.61 -21.28,0 -37.84,-7.61 -50.18,-23.22 -18.41,-23.9 -35.58,-61.79 -51.31,-113.29 -15.94,-51.89 -23.75,-96.06 -23.75,-132.9 0,-59.89 16.14,-89.78 48.74,-89.78 12.75,0 24.26,6 34.96,17.99 10.59,12.29 32.8,44.18 66.84,95.97 18.51,28.65 33.73,48.26 45.96,58.83 12.24,10.66 25.3,16.28 39.39,16.28 14.81,0 26.84,-5.62 35.78,-17.23 9.05,-11.33 13.68,-26.28 13.68,-45.22 0,-29.23 -17.59,-55.79 -52.24,-79.78 -72.8,-51.12 -125.45,-104.24 -157.53,-158.79 -32.4,-54.46 -48.54,-117.29 -48.54,-188.69 0,-77.12 16.56,-143.85 49.46,-199.73 46.99,-79.69 111.26,-119.58 192.4,-119.58zm661.3 0c22.62,0 59.43,6.95 110.54,21.23 10.38,2.67 18.92,4 25.71,4 7.61,0 22.62,-5.62 44.52,-17.61 10.39,-5.62 19.23,-8.66 26.63,-8.66 20.88,0 41.65,19.32 62.94,57.5 17.07,30.56 31.15,63.78 42.05,100.34 10.9,36.18 16.15,67.78 16.15,94.34 0,25.9 -6.17,47.51 -18.92,64.83 -12.75,16.95 -28.38,25.61 -47.41,25.61 -15.73,0 -29.82,-5.33 -42.36,-16.28 -12.45,-11.32 -32.39,-35.6 -59.85,-73.11 -28.9,-40.27 -52.96,-60.45 -71.88,-60.45 -12.75,0 -23.65,6.57 -32.9,19.89 -9.26,13.33 -13.89,29.23 -13.89,47.22 0,31.9 21.29,61.79 63.55,89.68 76.41,49.13 134.92,103.01 175.53,161.46 34.56,49.51 51.62,109.68 51.62,181.08 0,90.44 -27.55,165.46 -82.77,226 -47.41,52.46 -105.4,78.73 -174.2,78.73 -17.48,0 -49.46,-4.37 -96.14,-12.66 -43.71,-6.95 -68.18,-10.66 -73.84,-10.66 -5.75,0 -12.64,1.05 -20.25,3.05 -13.06,2.28 -22.52,3.61 -28.59,3.61 -21.18,0 -37.84,-7.61 -50.08,-23.22 -18.51,-23.9 -35.58,-61.79 -51.41,-113.29 -15.94,-51.89 -23.76,-96.06 -23.76,-132.9 0,-59.89 16.15,-89.78 48.74,-89.78 12.76,0 24.38,6 34.97,17.99 10.59,12.29 32.8,44.18 66.84,95.97 18.51,28.65 33.72,48.26 45.96,58.83 12.24,10.66 25.3,16.28 39.39,16.28 14.8,0 26.83,-5.62 35.88,-17.23 8.95,-11.33 13.58,-26.28 13.58,-45.22 0,-29.23 -17.59,-55.79 -52.24,-79.78 -72.8,-51.12 -125.35,-104.24 -157.54,-158.79 -32.39,-54.46 -48.53,-117.29 -48.53,-188.69 0,-77.12 16.55,-143.85 49.46,-199.73 46.99,-79.69 111.26,-119.58 192.5,-119.58z"/>
  </g>
 </g>
</svg>
