<svg width="177" height="42" viewBox="0 0 177 42" fill="none" xmlns="http://www.w3.org/2000/svg">
<path fill-rule="evenodd" clip-rule="evenodd" d="M158.653 12.0809V29.9161L155.472 33.1198C156.933 31.6486 157.341 28.5947 154.846 26.0825C150.917 22.126 152.279 23.4973 146.653 17.8352C141.782 12.9299 141.782 4.90535 146.653 0C153.466 6.85674 151.841 5.22034 158.653 12.0809Z" fill="url(#paint0_linear_2737_49)"/>
<path fill-rule="evenodd" clip-rule="evenodd" d="M154.846 15.9176C157.341 13.4054 156.937 10.3515 155.472 8.87646L158.653 12.0801C163.524 16.9855 163.524 25.01 158.653 29.9153C151.841 36.7759 153.465 35.1395 146.653 42.0001C141.782 37.0947 141.782 29.0702 146.653 24.1649C152.275 18.5028 150.917 19.8703 154.846 15.9176Z" fill="url(#paint1_linear_2737_49)"/>
<path fill-rule="evenodd" clip-rule="evenodd" d="M170.999 15.3999C174.091 15.3999 176.6 17.9067 176.6 20.9989C176.6 24.091 174.093 26.5999 170.999 26.5999C167.906 26.5999 165.4 24.0931 165.4 20.9989C165.4 17.9067 167.906 15.3999 170.999 15.3999Z" fill="url(#paint2_linear_2737_49)"/>
<path d="M9.06 32.27C6.03 32.27 4.59 30.65 4.59 27.29V17.54H1.65V15.17H4.59V10.22H7.02V15.17H12.63V17.54H7.02V27.29C7.02 28.97 7.74 29.87 9.06 29.87C9.78 29.87 10.68 29.27 11.73 28.01L13.14 30.29L12.63 30.89C11.88 31.79 10.5 32.27 9.06 32.27ZM23.2408 29.78C25.5808 29.78 27.3208 28.55 28.2808 26.72H30.9208C29.6908 29.96 26.9608 32.21 23.2708 32.24H23.2108C18.0208 32.06 15.0508 28.76 15.0508 23.78C15.0508 19.07 18.2608 15.26 23.0908 15.26C27.9508 15.26 31.2208 19.19 31.2208 25.04H17.7208C18.1708 27.95 20.0608 29.78 23.2408 29.78ZM23.0908 17.69C20.1808 17.69 18.1108 19.82 17.6008 22.61H28.7308C28.1908 19.82 26.1208 17.69 23.0908 17.69ZM42.0288 32.24C37.1988 32.24 33.9888 28.52 33.9888 23.78C33.9888 19.07 37.1988 15.26 42.0288 15.26C45.7488 15.26 48.5088 17.54 49.7388 20.84H47.0988C46.1388 18.95 44.3988 17.69 42.0288 17.69C38.6688 17.69 36.4488 20.42 36.4488 23.78C36.4488 27.11 38.6088 29.78 42.0288 29.78C44.3988 29.78 46.1388 28.55 47.0988 26.72H49.7388C48.5088 29.99 45.7488 32.24 42.0288 32.24ZM54.8308 23.12V32H52.3408V10.22H54.8308V17.42C56.2408 16.04 58.1308 15.26 60.3808 15.26C65.3008 15.26 68.5108 19.07 68.5108 23.78V32H66.0808V23.78C66.0808 20.42 63.8608 17.69 60.3808 17.69C57.4108 17.69 55.3408 20.27 54.8308 23.12ZM75.3389 17.54L75.3089 32H72.8489L72.8789 17.54H69.6089V15.17H72.8489C73.8089 11.36 76.6589 10.22 80.6789 10.22H81.8489V12.65H80.7089C78.5189 12.74 76.5989 13.4 75.6689 15.17H80.3489V17.54H75.3389ZM88.7938 32.24C83.9638 32.24 80.7538 28.52 80.7538 23.78C80.7538 19.07 83.9638 15.26 88.7938 15.26C93.7138 15.26 96.9238 19.07 96.9238 23.78C96.9238 28.52 93.7138 32.24 88.7938 32.24ZM88.7938 29.78C92.3338 29.78 94.4938 27.11 94.4938 23.78C94.4938 20.42 92.3038 17.69 88.7938 17.69C85.4338 17.69 83.2138 20.42 83.2138 23.78C83.2138 27.11 85.3738 29.78 88.7938 29.78ZM102.185 22.67V32H99.6946L99.5746 15.17H102.065L102.125 17.57C103.565 16.19 105.515 15.26 107.765 15.26C109.265 15.26 110.855 15.8 112.535 16.64L111.635 19.07C110.135 18.2 108.845 17.69 107.765 17.69C104.735 17.69 102.185 19.82 102.185 22.67ZM123.183 32.24C120.933 32.24 119.043 31.49 117.633 30.14V32H115.143V10.22H117.633V17.42C119.043 16.04 120.933 15.26 123.183 15.26C128.103 15.26 131.313 19.07 131.313 23.78C131.313 28.52 128.103 32.24 123.183 32.24ZM123.183 29.78C126.693 29.78 128.883 27.11 128.883 23.78C128.883 20.42 126.663 17.69 123.183 17.69C120.183 17.69 118.143 20.27 117.633 23.12V24.44C118.143 27.23 120.183 29.78 123.183 29.78Z" fill="#333333"/>
<defs>
<linearGradient id="paint0_linear_2737_49" x1="150.639" y1="25.358" x2="151.457" y2="-0.625238" gradientUnits="userSpaceOnUse">
<stop stop-color="#60269F"/>
<stop offset="1" stop-color="#884BC7"/>
</linearGradient>
<linearGradient id="paint1_linear_2737_49" x1="140.096" y1="40.7786" x2="163.884" y2="11.3022" gradientUnits="userSpaceOnUse">
<stop stop-color="#9140E7"/>
<stop offset="1" stop-color="#200443"/>
</linearGradient>
<linearGradient id="paint2_linear_2737_49" x1="171.187" y1="29.2347" x2="170.854" y2="14.6011" gradientUnits="userSpaceOnUse">
<stop stop-color="#7C35C8"/>
<stop offset="1" stop-color="#562D85"/>
</linearGradient>
</defs>
</svg>
